
        <svg xmlns="http://www.w3.org/2000/svg" xmlns:xlink="http://www.w3.org/1999/xlink" version="1.1" width="250.913043478261" 
        height="91.2051983900017" viewBox="0 0 3173.913043478261 1091.2051983900017">
			
			<g transform="scale(8.695652173913043) translate(10, 10)">
				<defs id="SvgjsDefs2432"></defs><g id="SvgjsG2433" featureKey="v37d4h-0" transform="matrix(1.241050793156193,0,0,1.241050793156193,-28.34717680466813,-3.102093789891294)" fill="#4c59fc"><path xmlns="http://www.w3.org/2000/svg" d="M65.532,53.661c2.473-2.341,2.081-5.645-0.869-7.341L59.1,43.118c-2.95-1.697-4.723-5.797-3.941-9.109l6.699-28.398  c0.781-3.312-0.602-4.108-3.073-1.767L24.467,36.339c-2.472,2.341-2.08,5.644,0.87,7.342l5.562,3.2  c2.949,1.698,4.724,5.798,3.943,9.109l-6.701,28.398c-0.78,3.312,0.602,4.107,3.074,1.767L65.532,53.661z"></path></g><g id="SvgjsG2434" featureKey="UxBHKT-0" transform="matrix(1.5247345674730497,0,0,1.5247345674730497,72.6214145255131,33.49830581170458)" fill="#120705"><path d="M4.7 20 l-3.14 0 l0 -15.08 l10.08 8.92 l0 -8.44 l3.16 0 l0 15.06 l-10.1 -8.78 l0 8.32 z M24.355999999999998 11.38 l7 0 l0 2.76 l-7 0 l0 3.12 l7.92 0 l0 2.74 l-11.08 0 l0 -14.62 l11.08 0 l0 2.74 l-7.92 0 l0 3.26 z M44.19199999999999 8.12 l0 11.88 l-3.18 0 l0 -11.88 l-4.26 0 l0 -2.74 l11.68 0 l0 2.74 l-4.24 0 z M56.627999999999986 20 l-3.16 0 l0 -14.62 l3.16 0 l0 6.1 l5.7 -6.1 l3.92 0 l-6.02 6.2 l6.28 8.42 l-3.88 0 l-4.58 -6.22 l-1.42 1.48 l0 4.74 z M71.58399999999999 20 l0 -14.62 l6.5 0 q1.56 0 2.76 0.64 t1.86 1.8 t0.66 2.64 q0 1.58 -0.8 2.82 t-2.18 1.82 q1.42 1.8 3.78 4.9 l-3.78 0 q-1.28 -1.6 -3.5 -4.56 l-2.16 0 l0 4.56 l-3.14 0 z M78.08399999999999 12.7 q0.82 0 1.48 -0.59 t0.66 -1.65 q0 -0.86 -0.46 -1.6 t-1.68 -0.74 l-3.36 0 l0 4.58 l3.36 0 z M95.43999999999998 4.92 l8.02 15.08 l-3.46 0 l-1.16 -2.24 l-6.82 0 l-1.12 2.24 l-3.48 0 z M97.32 15.059999999999999 l-1.88 -3.82 l-1.86 3.82 l3.74 0 z M111.39599999999999 11.34 l6.98 0 l0 2.74 l-6.98 0 l0 5.92 l-3.18 0 l0 -14.62 l11.08 0 l0 2.74 l-7.9 0 l0 3.22 z M131.452 8.12 l0 11.88 l-3.18 0 l0 -11.88 l-4.26 0 l0 -2.74 l11.68 0 l0 2.74 l-4.24 0 z M143.86799999999997 11.38 l7 0 l0 2.76 l-7 0 l0 3.12 l7.92 0 l0 2.74 l-11.08 0 l0 -14.62 l11.08 0 l0 2.74 l-7.92 0 l0 3.26 z M157.82399999999998 20 l0 -14.62 l6.5 0 q1.56 0 2.76 0.64 t1.86 1.8 t0.66 2.64 q0 1.58 -0.8 2.82 t-2.18 1.82 q1.42 1.8 3.78 4.9 l-3.78 0 q-1.28 -1.6 -3.5 -4.56 l-2.16 0 l0 4.56 l-3.14 0 z M164.32399999999998 12.7 q0.82 0 1.48 -0.59 t0.66 -1.65 q0 -0.86 -0.46 -1.6 t-1.68 -0.74 l-3.36 0 l0 4.58 l3.36 0 z M175.77999999999997 15.84 l-0.52 -10.44 l3.38 0 l-0.52 10.44 l-2.34 0 z M178.09999999999997 19.69 q-0.5 0.47 -1.18 0.47 t-1.16 -0.47 t-0.48 -1.13 q0 -0.64 0.48 -1.12 t1.16 -0.48 t1.18 0.48 t0.5 1.12 q0 0.66 -0.5 1.13 z"></path></g>
			</g>
		</svg>
	